<svg width="295" height="119" viewBox="0 0 295 119" fill="none" xmlns="http://www.w3.org/2000/svg">
<path d="M61.7969 83.6953C61.7969 84.9453 61.5755 86.2865 61.1328 87.7188C60.7161 89.151 60.013 90.4792 59.0234 91.7031C58.0599 92.9271 56.7969 93.9557 55.2344 94.7891C53.6719 95.5964 51.7578 96 49.4922 96H10.9375C10.2083 96 9.53125 95.8698 8.90625 95.6094C8.28125 95.349 7.73438 94.9974 7.26562 94.5547C6.82292 94.0859 6.47135 93.5391 6.21094 92.9141C5.95052 92.2891 5.82031 91.612 5.82031 90.8828V45.1016C5.82031 44.3984 5.95052 43.7344 6.21094 43.1094C6.47135 42.4844 6.82292 41.9375 7.26562 41.4688C7.73438 41 8.28125 40.6354 8.90625 40.375C9.53125 40.1146 10.2083 39.9844 10.9375 39.9844H44.9219C46.1719 39.9844 47.513 40.2057 48.9453 40.6484C50.3776 41.0911 51.7057 41.8073 52.9297 42.7969C54.1797 43.7604 55.2083 45.0234 56.0156 46.5859C56.849 48.1484 57.2656 50.0625 57.2656 52.3281V54.2422C57.2656 56.0391 56.9661 57.9792 56.3672 60.0625C55.7682 62.1198 54.8047 64.0729 53.4766 65.9219C54.6224 66.625 55.6901 67.4714 56.6797 68.4609C57.6953 69.4505 58.5807 70.5964 59.3359 71.8984C60.0911 73.2005 60.6901 74.6719 61.1328 76.3125C61.5755 77.9531 61.7969 79.763 61.7969 81.7422V83.6953ZM51.6406 81.7422C51.6406 80.4141 51.4323 79.2292 51.0156 78.1875C50.599 77.1198 50.013 76.2083 49.2578 75.4531C48.5026 74.6979 47.5911 74.125 46.5234 73.7344C45.4557 73.3177 44.2578 73.1094 42.9297 73.1094H20.0391V62.875H38.3594C39.6875 62.875 40.8854 62.6797 41.9531 62.2891C43.0208 61.8724 43.9323 61.2865 44.6875 60.5312C45.4427 59.776 46.0156 58.8776 46.4062 57.8359C46.8229 56.7682 47.0312 55.5703 47.0312 54.2422V52.3281C47.0312 50.8698 46.3281 50.1406 44.9219 50.1406H15.9766V85.8438H49.4922C49.6745 85.8438 49.8958 85.8307 50.1562 85.8047C50.4167 85.7786 50.651 85.7005 50.8594 85.5703C51.0677 85.4401 51.25 85.2188 51.4062 84.9062C51.5625 84.5938 51.6406 84.1641 51.6406 83.6172V81.7422ZM122.109 96H75.7812C75.0521 96 74.375 95.8698 73.75 95.6094C73.125 95.349 72.5781 94.9974 72.1094 94.5547C71.6667 94.0859 71.3151 93.5391 71.0547 92.9141C70.7943 92.2891 70.6641 91.612 70.6641 90.8828V39.9844H80.8203V85.8438H122.109V96Z" fill="black"/>
<path d="M26.0205 30H12.2803C11.9287 30 11.5479 29.9609 11.1377 29.8828C10.7373 29.7949 10.3369 29.6631 9.93652 29.4873C9.5459 29.3115 9.16992 29.0869 8.80859 28.8135C8.44727 28.5303 8.125 28.1934 7.8418 27.8027C7.56836 27.4023 7.34863 26.9434 7.18262 26.4258C7.0166 25.8984 6.93359 25.3076 6.93359 24.6533V14.3408C6.93359 13.9893 6.97266 13.6133 7.05078 13.2129C7.13867 12.8027 7.27051 12.4023 7.44629 12.0117C7.62207 11.6113 7.85156 11.2305 8.13477 10.8691C8.41797 10.5078 8.75488 10.1904 9.14551 9.91699C9.5459 9.63379 10.0049 9.40918 10.5225 9.24316C11.04 9.07715 11.626 8.99414 12.2803 8.99414H26.0205V12.8027H12.2803C11.7822 12.8027 11.4014 12.9346 11.1377 13.1982C10.874 13.4619 10.7422 13.8525 10.7422 14.3701V24.6533C10.7422 25.1416 10.874 25.5225 11.1377 25.7959C11.4111 26.0596 11.792 26.1914 12.2803 26.1914H26.0205V30ZM50.2344 30H46.4258V24.8438H33.0371V30H29.2285V19.4971C29.2285 17.9639 29.4922 16.5527 30.0195 15.2637C30.5469 13.9746 31.2793 12.8662 32.2168 11.9385C33.1543 11.0107 34.2627 10.2881 35.542 9.77051C36.8213 9.25293 38.2178 8.99414 39.7314 8.99414H48.3154C48.5791 8.99414 48.8281 9.04297 49.0625 9.14062C49.2969 9.23828 49.502 9.375 49.6777 9.55078C49.8535 9.72656 49.9902 9.93164 50.0879 10.166C50.1855 10.4004 50.2344 10.6494 50.2344 10.9131V30ZM33.0371 21.0352H46.4258V12.8027H39.7314C39.6143 12.8027 39.3652 12.8223 38.9844 12.8613C38.6133 12.8906 38.1787 12.9736 37.6807 13.1104C37.1924 13.2471 36.6748 13.457 36.1279 13.7402C35.5811 14.0234 35.0781 14.4141 34.6191 14.9121C34.1602 15.4102 33.7793 16.0352 33.4766 16.7871C33.1836 17.5293 33.0371 18.4326 33.0371 19.4971V21.0352ZM75.6641 16.0547C75.6641 16.9238 75.5566 17.7002 75.3418 18.3838C75.127 19.0674 74.834 19.6729 74.4629 20.2002C74.1016 20.7178 73.6816 21.1621 73.2031 21.5332C72.7246 21.9043 72.2217 22.2119 71.6943 22.4561C71.1768 22.6904 70.6494 22.8613 70.1123 22.9688C69.585 23.0762 69.0869 23.1299 68.6182 23.1299L76.5723 30H70.6836L62.7441 23.1299H60.0049V19.3213H68.6182C69.0967 19.2822 69.5312 19.1846 69.9219 19.0283C70.3223 18.8623 70.6641 18.6426 70.9473 18.3691C71.2402 18.0957 71.4648 17.7686 71.6211 17.3877C71.7773 16.9971 71.8555 16.5527 71.8555 16.0547V13.6523C71.8555 13.4375 71.8262 13.2764 71.7676 13.1689C71.7188 13.0518 71.6504 12.9687 71.5625 12.9199C71.4844 12.8613 71.3965 12.8271 71.2988 12.8174C71.2109 12.8076 71.1279 12.8027 71.0498 12.8027H58.4814V30H54.6729V10.9131C54.6729 10.6494 54.7217 10.4004 54.8193 10.166C54.917 9.93164 55.0488 9.72656 55.2148 9.55078C55.3906 9.375 55.5957 9.23828 55.8301 9.14062C56.0645 9.04297 56.3184 8.99414 56.5918 8.99414H71.0498C71.8994 8.99414 72.6172 9.15039 73.2031 9.46289C73.7891 9.76563 74.2627 10.1514 74.624 10.6201C74.9951 11.0791 75.2588 11.5771 75.415 12.1143C75.5811 12.6514 75.6641 13.1543 75.6641 13.623V16.0547ZM100.449 25.3857C100.449 25.8545 100.366 26.3574 100.2 26.8945C100.044 27.4316 99.7803 27.9297 99.4092 28.3887C99.0479 28.8477 98.5742 29.2334 97.9883 29.5459C97.4023 29.8486 96.6846 30 95.835 30H81.377C81.1035 30 80.8496 29.9512 80.6152 29.8535C80.3809 29.7559 80.1758 29.624 80 29.458C79.834 29.2822 79.7021 29.0771 79.6045 28.8428C79.5068 28.6084 79.458 28.3545 79.458 28.0811V10.9131C79.458 10.6494 79.5068 10.4004 79.6045 10.166C79.7021 9.93164 79.834 9.72656 80 9.55078C80.1758 9.375 80.3809 9.23828 80.6152 9.14062C80.8496 9.04297 81.1035 8.99414 81.377 8.99414H94.1211C94.5898 8.99414 95.0928 9.07715 95.6299 9.24316C96.167 9.40918 96.665 9.67773 97.124 10.0488C97.5928 10.4102 97.9785 10.8838 98.2812 11.4697C98.5938 12.0557 98.75 12.7734 98.75 13.623V14.3408C98.75 15.0146 98.6377 15.7422 98.4131 16.5234C98.1885 17.2949 97.8271 18.0273 97.3291 18.7207C97.7588 18.9844 98.1592 19.3018 98.5303 19.6729C98.9111 20.0439 99.2432 20.4736 99.5264 20.9619C99.8096 21.4502 100.034 22.002 100.2 22.6172C100.366 23.2324 100.449 23.9111 100.449 24.6533V25.3857ZM96.6406 24.6533C96.6406 24.1553 96.5625 23.7109 96.4062 23.3203C96.25 22.9199 96.0303 22.5781 95.7471 22.2949C95.4639 22.0117 95.1221 21.7969 94.7217 21.6504C94.3213 21.4941 93.8721 21.416 93.374 21.416H84.79V17.5781H91.6602C92.1582 17.5781 92.6074 17.5049 93.0078 17.3584C93.4082 17.2021 93.75 16.9824 94.0332 16.6992C94.3164 16.416 94.5312 16.0791 94.6777 15.6885C94.834 15.2881 94.9121 14.8389 94.9121 14.3408V13.623C94.9121 13.0762 94.6484 12.8027 94.1211 12.8027H83.2666V26.1914H95.835C95.9033 26.1914 95.9863 26.1865 96.084 26.1768C96.1816 26.167 96.2695 26.1377 96.3477 26.0889C96.4258 26.04 96.4941 25.957 96.5527 25.8398C96.6113 25.7227 96.6406 25.5615 96.6406 25.3564V24.6533ZM125.82 21.5039C125.82 22.7832 125.601 23.96 125.161 25.0342C124.722 26.1084 124.111 27.0361 123.33 27.8174C122.549 28.5986 121.621 29.209 120.547 29.6484C119.482 30.0781 118.32 30.293 117.061 30.293H111.904C110.645 30.293 109.478 30.0781 108.403 29.6484C107.329 29.209 106.401 28.5986 105.62 27.8174C104.839 27.0361 104.224 26.1084 103.774 25.0342C103.335 23.96 103.115 22.7832 103.115 21.5039V17.4902C103.115 16.2207 103.335 15.0488 103.774 13.9746C104.224 12.8906 104.839 11.9629 105.62 11.1914C106.401 10.4102 107.329 9.7998 108.403 9.36035C109.478 8.9209 110.645 8.70117 111.904 8.70117H117.061C118.32 8.70117 119.482 8.9209 120.547 9.36035C121.621 9.7998 122.549 10.4102 123.33 11.1914C124.111 11.9629 124.722 12.8906 125.161 13.9746C125.601 15.0488 125.82 16.2207 125.82 17.4902V21.5039ZM122.012 17.4902C122.012 16.7383 121.89 16.0596 121.646 15.4541C121.411 14.8389 121.074 14.3164 120.635 13.8867C120.205 13.4473 119.683 13.1104 119.067 12.876C118.462 12.6318 117.793 12.5098 117.061 12.5098H111.904C111.162 12.5098 110.483 12.6318 109.868 12.876C109.263 13.1104 108.74 13.4473 108.301 13.8867C107.861 14.3164 107.52 14.8389 107.275 15.4541C107.041 16.0596 106.924 16.7383 106.924 17.4902V21.5039C106.924 22.2559 107.041 22.9395 107.275 23.5547C107.52 24.1602 107.861 24.6826 108.301 25.1221C108.74 25.5518 109.263 25.8887 109.868 26.1328C110.483 26.3672 111.162 26.4844 111.904 26.4844H117.031C117.773 26.4844 118.447 26.3672 119.053 26.1328C119.668 25.8887 120.195 25.5518 120.635 25.1221C121.074 24.6826 121.411 24.1602 121.646 23.5547C121.89 22.9395 122.012 22.2559 122.012 21.5039V17.4902ZM150.576 28.374C150.576 28.6475 150.522 28.9014 150.415 29.1357C150.317 29.3701 150.181 29.5752 150.005 29.751C149.839 29.917 149.639 30.0488 149.404 30.1465C149.17 30.2441 148.921 30.293 148.657 30.293C148.423 30.293 148.184 30.249 147.939 30.1611C147.705 30.0732 147.495 29.9316 147.31 29.7363L133.394 15.2051V30H129.585V10.6201C129.585 10.2295 129.692 9.87793 129.907 9.56543C130.132 9.24316 130.415 9.00391 130.757 8.84766C131.118 8.70117 131.489 8.66699 131.87 8.74512C132.251 8.81348 132.578 8.98926 132.852 9.27246L146.768 23.7891V8.99414H150.576V28.374Z" fill="black"/>
<path fill-rule="evenodd" clip-rule="evenodd" d="M147 48H157C164.948 48 171.453 54.182 171.967 62H181.98C181.455 48.6565 170.472 38 157 38H147C133.193 38 122 49.1929 122 63V71C122 84.8071 133.193 96 147 96H157C169.792 96 180.34 86.3927 181.822 74H171.7C170.31 80.8467 164.257 86 157 86H147C138.716 86 132 79.2843 132 71V63C132 54.7157 138.716 48 147 48Z" fill="black"/>
<path fill-rule="evenodd" clip-rule="evenodd" d="M220.195 96H234.609L205.82 67.9922L234.609 39.9844H220.195L198 62.2176V73.7667L220.195 96ZM186.133 62V39.9844H175.977V62H186.133ZM175.977 74H186.133V96H175.977V74ZM294.023 84.9453C294.544 83.3307 294.805 81.5208 294.805 79.5156C294.805 77.5104 294.557 75.7135 294.062 74.125C293.568 72.5365 292.891 71.1302 292.031 69.9062C291.198 68.6823 290.234 67.6406 289.141 66.7812C288.047 65.8958 286.888 65.1667 285.664 64.5938C284.466 64.0208 283.255 63.6042 282.031 63.3438C280.807 63.0573 279.648 62.901 278.555 62.875H255.117C253.19 62.875 251.68 62.3151 250.586 61.1953C249.518 60.0495 248.984 58.5 248.984 56.5469C248.984 54.6198 249.518 53.0703 250.586 51.8984C251.68 50.7266 253.19 50.1406 255.117 50.1406H289.688V39.9844H255.117C253.477 39.9844 251.706 40.2839 249.805 40.8828C247.904 41.4557 246.133 42.4062 244.492 43.7344C242.878 45.0365 241.523 46.7422 240.43 48.8516C239.362 50.9349 238.828 53.5 238.828 56.5469C238.828 59.5938 239.362 62.1719 240.43 64.2812C241.523 66.3906 242.878 68.0964 244.492 69.3984C246.133 70.7005 247.904 71.651 249.805 72.25C251.706 72.8229 253.477 73.1094 255.117 73.1094H278.477C279.414 73.1094 280.26 73.2656 281.016 73.5781C281.797 73.8906 282.448 74.3333 282.969 74.9062C283.516 75.4792 283.932 76.1562 284.219 76.9375C284.505 77.7188 284.648 78.5781 284.648 79.5156C284.648 81.4427 284.102 82.9792 283.008 84.125C281.94 85.2708 280.43 85.8438 278.477 85.8438H239.297V96H278.477C279.57 96 280.729 95.8698 281.953 95.6094C283.203 95.349 284.427 94.9453 285.625 94.3984C286.823 93.8516 287.982 93.1484 289.102 92.2891C290.221 91.4297 291.198 90.388 292.031 89.1641C292.865 87.9401 293.529 86.5339 294.023 84.9453Z" fill="black"/>
</svg>
